COLOR 15:
1 :
CLS :
LOCATE 10, 30: PRINT "EDDIE WORKS PRESENTS"
J$ = INPUT$(1)

2 :
CLS
LOCATE 10, 30: PRINT "EDDIE'S MUSIC MACHINE"
LOCATE 11, 35: PRINT "VERSION 2.0"
PLAY "CDEFGABC"
K$ = INPUT$(1)

3 :
CLS
LOCATE 10, 40: PRINT "(C) 1995"
a$ = INPUT$(1)

4 :
menu:
CLS :
LOCATE 10, 25: PRINT "CHOOSE ONE"
LOCATE 11, 30: PRINT CHR$(14)
PRINT "1) The Muppet Show Theme"
PRINT "2) Star Wars- The Imperial March"
PRINT "3) The Entertainer"
PRINT "4) The Flintstones Theme"
PRINT "5) Jurrassic Park Theme"
PRINT "6) The Original Star Wars Theme"
PRINT "7) Quit"
PRINT "What Is Your Selection?"

INPUT n
IF n = 1 THEN GOTO a
IF n = 2 THEN GOTO b
IF n = 3 THEN GOTO c
IF n = 4 THEN GOTO d
IF n = 5 THEN GOTO e
IF n = 6 THEN GOTO f
IF n = 7 THEN END

a:
MUPPET$ = "MBT180o2P2L3CC<ABABGP3>CC<ABAL2GP3L3EEGFEL4F>C<CD"
FIRST$ = "MBT180o2L3<EEL4EEL3G>"
SECOND$ = "MBT180o2L3<EEL4EDL3CP2P3>>C<"
PIGGY$ = "MBT180o2L3>DC<B>DC<L2GL3>CDC<B>DL2CL3CCDC<B>DE<L2GL3GAAL4B>CL3D"
SPOKEN$ = "MBT180o2P1"
AGAIN$ = "MBT180o2P3L3CC<ABABGP3>CC<ABAL2GP3L3EEGFEL4F>C<CD"
MOSEN$ = "MBT180o2<L3EEL4ECL3E"
INSP$ = "MBT180o2<AAL3AEL3A"
CELE$ = "MBT180o2L3CCL4C<A>L3C"
MUPPETATIONAL$ = "MBT180o2EEL4ECL3E"
HEREWEGOBOYS$ = "MBT180o2L2<AB>CDEEEEL1G"
PLAY MUPPET$
PLAY FIRST$
PLAY MUPPET$
PLAY SECOND$
PLAY PIGGY$
PLAY SPOKEN$
PLAY AGAIN$
PLAY MOSEN$
PLAY INSP$
PLAY CELE$
PLAY MUPPETATIONAL$
PLAY HEREWEGOBOYS$
GOTO menu

b:
PLAY "mn t150 o1 l4 g g g l8 e-. b-16 g4 l8 e-. b-16 g2"
PLAY "o2 l4 d d d l8 e-. o1 b-16 f+4 l8 e-. b-16 g2"
PLAY "o2 g4 o1 g8. g16 o2 g4 f+8. f16 e16 e-16 mse8 p8"
PLAY "o1 g+8 ml o2 mn c+4 c8. o1 b16 b-16 a16ms b-8 p8"
PLAY "e-8 ml f+4 mn e-8. f+16 b-4 g8. b-16 o2 d2"
PLAY "g4 o1 g8. g16 o2 g4 f+8. f16 e16 e-16 ms e8 p8"
PLAY "o1 g+8 ml o2 mn c+4 c8. o1 b16 b-16 a16 ms b-8 p8"
PLAY "e-8 ml f+4 mn e-8. b-16 g4 e-8. b-16 g2"
PLAY "o2 l4 d d d e-8 e-8 d d d e-8 e-8 ms d 01 p4"
PLAY "l16 mn gg ms g8"
GOTO menu

c:
NOTHING$ = "MBT180o2<L4DD#"
BEGINING$ = "MBT180o2L4<E>L3C<L4EL3>C<L4E>L3C.P3P4L4CDD#ECDL3EL4<B>L3DCP3P3"
BEGINING2$ = "MBT180o2L4<DD#EL3>C<L4EL3>C<L4EL3>C.<P3P3L4AGF#A>CL3E.L4DC<A>DP3P3"
BEGINING3$ = "MBT180o2L4<DD#EL3>C<L4EL3>C<L4EL3>C.P3P4L4CDD#ECDL3EL4<B>L3DCP3P3"
FUN$ = "MBT180o2L4CDECDL3EL4CDCECDL3EL4CDCECDL3EL4<B>L3D"
FIRST$ = "MBT180o2L3CP3P3L4<DD#"
SECOND$ = "MBT180o2L3CP3P4L4EFF#"
JOPLIN$ = "MBT180o2L3GL4AL3GL4EFF#L3GL4AL3GL4EC<GAB>CDEDCD<G>EFGAGEFL3GL4A"
SCOTT$ = "MBT180o2L3GL4EFF#L3GL4AL3GL4GAA#L4BL3BB.L4AF#DL3GP3P4L4EFF#L3GL4AL3G"
STING$ = "MBT180o2L4EFF#L3GL4AL3GL4EC<GAB>CDEDCDL3CP3P4L4<GF#G>L3CL4<A>L3CL4<A>C<AG"
ENTER$ = "MBT180o2L4CEL3GL4EC<GL3A>CED."
FIRST2$ = "MBT180o2L3CP3P4L4EFF#"
SECOND2$ = "MBT180o2L3CP3P3<L4DD#"
CODA$ = "MBT180o2L3CP3>C"
PLAY NOTHING$
PLAY BEGINING$
PLAY BEGINING2$
PLAY BEGINING3$
PLAY FUN$
PLAY FIRST$
PLAY BEGINING$
PLAY BEGINING2$
PLAY BEGINING3$
PLAY FUN$
PLAY SECOND$
PLAY JOPLIN$
PLAY SCOTT$
PLAY STING$
PLAY ENTER$
PLAY FIRST2$
PLAY JOPLIN$
PLAY SCOTT$
PLAY STING$
PLAY ENTER$
PLAY SECOND2$
PLAY BEGINING$
PLAY BEGINING2$
PLAY BEGINING3$
PLAY FUN$
PLAY CODA$
GOTO menu

d:
PLAY "t195 c <f"
PLAY ">l8fdl4c<f>"
PLAY "l8c<b-aab->c<l4fgl2a"
PLAY "p4>l4c <f"
PLAY ">l8fdl4c<f>"
PLAY "l8c<b-aab->c<l4fgl2f"
PLAY "p4>l4 e<a>l8feeddel4d d<g >l8eddccdl4c"
PLAY "c<F l8>fdl4c<f >l8c<b-aab->Cl4<fg l8 ab->c<l4fg l8 ab->c l4 fgl2f"
GOTO menu


e:
PLAY "MBt190L4o3GL2o4DL4o3AL2o4EL8EF#"
PLAY "MBL3GL8GL4F#DL2EP2L4GF#"
PLAY "MBL4DE-o3BL8o4EF#L2GP4L4Co3BG"
PLAY "MBL2AP2L4o3GL2o4DL4o3AL2o4E"
PLAY "MBL8EF#L3GL8GL4F#DL2EP2L4GF#DE-o3B"
PLAY "MBL8o4EF#L4Go3L2GP3"
PLAY "MBL8Go4L2GF#L1GP4o1MSL8GGG"
GOTO menu

f:
SOUND 525.25, 18.2: SOUND 783.99, 18.2 / 2: SOUND 698.46, 18.2 / 6
SOUND 659.26, 18.2 / 6: SOUND 587.33, 18.2 / 6: SOUND 1046.6, 18.2
SOUND 783.99, 18.2 / 2: SOUND 698.46, 18.2 / 6: SOUND 659.26, 18.2 / 6
SOUND 587.33, 18.2 / 6
SOUND 1046.5, 18.2: SOUND 783.99, 18.2 / 2: SOUND 698.46, 18.2 / 6
SOUND 659.26, 18.2 / 6: SOUND 698.46, 18.2 / 6: SOUND 587.33, 18.2
GOTO menu

